<svg data-name="Layer 1" xmlns="http://www.w3.org/2000/svg" xmlns:xlink="http://www.w3.org/1999/xlink" viewBox="0 0 16 16" shape-rendering="crispEdges">
<defs>
<linearGradient id="a" x1="-127.5" y1="22" x2="-126.5" y2="21" gradientTransform="matrix(2 0 0 -1 262 22)" gradientUnits="userSpaceOnUse"><stop offset="0" stop-color="#c084fc"/><stop offset=".3" stop-color="#a855f7"/><stop offset=".7" stop-color="#9333ea"/><stop offset="1" stop-color="#7c3aed"/></linearGradient>
<linearGradient id="c" x1="-7.93" y1="21.98" x2="-6.93" y2="20.98" gradientTransform="matrix(1 0 0 -1 14 23)" xlink:href="#a"/>
<linearGradient id="b" x1="-127.5" y1="22" x2="-126.5" y2="21" gradientTransform="matrix(2 0 0 -1 262 23)" gradientUnits="userSpaceOnUse"><stop offset="0" stop-color="#e9d5ff"/><stop offset=".5" stop-color="#d8b4fe"/><stop offset="1" stop-color="#c084fc"/></linearGradient>
<linearGradient id="d" x1="-8.01" y1="21.99" x2="-6.99" y2="20.98" gradientTransform="matrix(1 0 0 -1 17 23)" xlink:href="#a"/>
<linearGradient id="e" x1="-8" x2="-7" y2="21" gradientTransform="matrix(1 0 0 -1 13 24)" xlink:href="#a"/>
<linearGradient id="f" x1="-187.25" x2="-186.25" y2="21" gradientTransform="matrix(4 0 0 -1 755 24)" xlink:href="#b"/>
<linearGradient id="g" x1="-8" x2="-7" y2="21" gradientTransform="matrix(1 0 0 -1 18 24)" xlink:href="#a"/>
<linearGradient id="h" x1="-8" x2="-7" y2="21" gradientTransform="matrix(1 0 0 -1 12 25)" xlink:href="#a"/>
<linearGradient id="i" x1="-207.17" x2="-206.17" y2="21" gradientTransform="matrix(6 0 0 -1 1248 25)" xlink:href="#b"/>
<linearGradient id="j" x1="-8" x2="-7" y2="21" gradientTransform="matrix(1 0 0 -1 19 25)" xlink:href="#a"/>
<linearGradient id="k" x1="-8" x2="-7" y2="21" gradientTransform="matrix(1 0 0 -1 11 26)" xlink:href="#a"/>
<linearGradient id="l" x1="-217.13" x2="-216.12" y2="21" gradientTransform="matrix(8 0 0 -1 1741 26)" xlink:href="#b"/>
<linearGradient id="m" x1="-8" x2="-7" y2="21" gradientTransform="matrix(1 0 0 -1 20 26)" xlink:href="#a"/>
<linearGradient id="n" x1="-8" x2="-7" y2="21" gradientTransform="matrix(1 0 0 -1 10 27)" xlink:href="#a"/>
<linearGradient id="o" x2="-126.5" y2="21" gradientTransform="matrix(2 0 0 -1 258 27)" xlink:href="#b"/>
<linearGradient id="p" x1="-207.17" x2="-206.17" y2="21" gradientTransform="matrix(6 0 0 -1 1248 27)" xlink:href="#a"/>
<linearGradient id="q" x2="-126.5" y2="21" gradientTransform="matrix(2 0 0 -1 266 27)" xlink:href="#b"/>
<linearGradient id="r" x1="-8" x2="-7" y2="21" gradientTransform="matrix(1 0 0 -1 21 27)" xlink:href="#a"/>
<linearGradient id="s" x1="-8" x2="-7" y2="21" gradientTransform="matrix(1 0 0 -1 9 28)" xlink:href="#a"/>
<linearGradient id="t" x1="-167.33" x2="-166.33" y2="21" gradientTransform="matrix(3 0 0 -1 504 28)" xlink:href="#b"/>
<linearGradient id="u" x1="-207.17" x2="-206.17" y2="21" gradientTransform="matrix(6 0 0 -1 1248 28)" xlink:href="#a"/>
<linearGradient id="v" x1="-167.33" x2="-166.33" y2="21" gradientTransform="matrix(3 0 0 -1 513 28)" xlink:href="#b"/>
<linearGradient id="w" x1="-8" x2="-7" y2="21" gradientTransform="matrix(1 0 0 -1 22 28)" xlink:href="#a"/>
<linearGradient id="x" x1="-8" x2="-7" y2="21" gradientTransform="matrix(1 0 0 -1 8 29)" xlink:href="#a"/>
<linearGradient id="y" x1="-187.25" x2="-186.25" y2="21" gradientTransform="matrix(4 0 0 -1 750 29)" xlink:href="#b"/>
<linearGradient id="z" x1="-207.17" x2="-206.17" y2="21" gradientTransform="matrix(6 0 0 -1 1248 29)" xlink:href="#a"/>
<linearGradient id="A" x1="-187.25" x2="-186.25" y2="21" gradientTransform="matrix(4 0 0 -1 760 29)" xlink:href="#b"/>
<linearGradient id="B" x1="-8" x2="-7" y2="21" gradientTransform="matrix(1 0 0 -1 23 29)" xlink:href="#a"/>
<linearGradient id="C" x1="-8" x2="-7" y2="21" gradientTransform="matrix(1 0 0 -1 8 30)" xlink:href="#a"/>
<linearGradient id="D" x1="-187.25" x2="-186.25" y2="21" gradientTransform="matrix(4 0 0 -1 750 30)" xlink:href="#b"/>
<linearGradient id="E" x1="-207.17" x2="-206.17" y2="21" gradientTransform="matrix(6 0 0 -1 1248 30)" xlink:href="#a"/>
<linearGradient id="F" x1="-187.25" x2="-186.25" y2="21" gradientTransform="matrix(4 0 0 -1 760 30)" xlink:href="#b"/>
<linearGradient id="G" x1="-8" x2="-7" y2="21" gradientTransform="matrix(1 0 0 -1 23 30)" xlink:href="#a"/>
<linearGradient id="H" x1="-8" x2="-7" y2="21" gradientTransform="matrix(1 0 0 -1 9 31)" xlink:href="#a"/>
<linearGradient id="I" x1="-167.33" x2="-166.33" y2="21" gradientTransform="matrix(3 0 0 -1 504 31)" xlink:href="#b"/>
<linearGradient id="J" x1="-207.17" x2="-206.17" y2="21" gradientTransform="matrix(6 0 0 -1 1248 31)" xlink:href="#a"/>
<linearGradient id="K" x1="-167.33" x2="-166.33" y2="21" gradientTransform="matrix(3 0 0 -1 513 31)" xlink:href="#b"/>
<linearGradient id="L" x1="-8" x2="-7" y2="21" gradientTransform="matrix(1 0 0 -1 22 31)" xlink:href="#a"/>
<linearGradient id="M" x1="-8" x2="-7" y2="21" gradientTransform="matrix(1 0 0 -1 10 32)" xlink:href="#a"/>
<linearGradient id="N" x2="-126.5" y2="21" gradientTransform="matrix(2 0 0 -1 258 32)" xlink:href="#b"/>
<linearGradient id="O" x1="-207.17" x2="-206.17" y2="21" gradientTransform="matrix(6 0 0 -1 1248 32)" xlink:href="#a"/>
<linearGradient id="P" x2="-126.5" y2="21" gradientTransform="matrix(2 0 0 -1 266 32)" xlink:href="#b"/>
<linearGradient id="Q" x1="-8" x2="-7" y2="21" gradientTransform="matrix(1 0 0 -1 21 32)" xlink:href="#a"/>
<linearGradient id="R" x1="-8" x2="-7" y2="21" gradientTransform="matrix(1 0 0 -1 11 33)" xlink:href="#a"/>
<linearGradient id="S" x1="-217.13" x2="-216.13" y2="21" gradientTransform="matrix(8 0 0 -1 1741 33)" xlink:href="#a"/>
<linearGradient id="T" x1="-8" x2="-7" y2="21" gradientTransform="matrix(1 0 0 -1 20 33)" xlink:href="#a"/>
<linearGradient id="U" x1="-8" x2="-7" y2="21" gradientTransform="matrix(1 0 0 -1 12 34)" xlink:href="#a"/>
<linearGradient id="V" x1="-207.17" x2="-206.17" y2="21" gradientTransform="matrix(6 0 0 -1 1248 34)" xlink:href="#a"/>
<linearGradient id="W" x1="-8" x2="-7" y2="21" gradientTransform="matrix(1 0 0 -1 19 34)" xlink:href="#a"/>
<linearGradient id="X" x1="-8" x2="-7" y2="21" gradientTransform="matrix(1 0 0 -1 13 35)" xlink:href="#a"/>
<linearGradient id="Y" x1="-187.25" x2="-186.25" y2="21" gradientTransform="matrix(4 0 0 -1 755 35)" xlink:href="#a"/>
<linearGradient id="Z" x1="-8" x2="-7" y2="21" gradientTransform="matrix(1 0 0 -1 18 35)" xlink:href="#a"/>
<linearGradient id="aa" x1="-8" x2="-7" y2="21" gradientTransform="matrix(1 0 0 -1 14 36)" xlink:href="#a"/>
<linearGradient id="ab" x2="-126.5" y2="21" gradientTransform="matrix(2 0 0 -1 262 36)" xlink:href="#a"/>
<linearGradient id="ac" x1="-8" x2="-7" y2="21" gradientTransform="matrix(1 0 0 -1 17 36)" xlink:href="#a"/>
<linearGradient id="ad" x2="-126.5" y2="21" gradientTransform="matrix(2 0 0 -1 262 37)" xlink:href="#a"/>
<linearGradient id="ae" x2="-126.5" y2="21" gradientTransform="matrix(2 0 0 -1 262 26)" xlink:href="#b"/>
<linearGradient id="af" x1="-8" x2="-7" y2="21" gradientTransform="matrix(1 0 0 -1 14 28)" xlink:href="#b"/>
<linearGradient id="ag" x1="-8" x2="-7" y2="21" gradientTransform="matrix(1 0 0 -1 17 28)" xlink:href="#b"/>
<linearGradient id="ah" x2="-126.5" y2="21" gradientTransform="matrix(2 0 0 -1 262 30)" xlink:href="#b"/>
</defs>
<rect x="6.99" y="-0.01" width="2.02" height="1.02" style="fill:url(#a)"/>
<rect x="5.99" y="0.99" width="1.02" height="1.02" style="fill:url(#c)"/>
<rect x="6.99" y="0.99" width="2.02" height="1.02" style="fill:url(#b)"/>
<rect x="8.99" y="0.99" width="1.02" height="1.02" style="fill:url(#d)"/>
<rect x="4.99" y="1.99" width="1.02" height="1.02" style="fill:url(#e)"/>
<rect x="5.99" y="1.99" width="4.02" height="1.02" style="fill:url(#f)"/>
<rect x="9.99" y="1.99" width="1.02" height="1.02" style="fill:url(#g)"/>
<rect x="3.99" y="2.99" width="1.02" height="1.02" style="fill:url(#h)"/>
<rect x="4.99" y="2.99" width="6.02" height="1.02" style="fill:url(#i)"/>
<rect x="10.99" y="2.99" width="1.02" height="1.02" style="fill:url(#j)"/>
<rect x="2.99" y="3.99" width="1.02" height="1.02" style="fill:url(#k)"/>
<rect x="3.99" y="3.99" width="8.02" height="1.02" style="fill:url(#l)"/>
<rect x="11.99" y="3.99" width="1.02" height="1.02" style="fill:url(#m)"/>
<rect x="1.99" y="4.99" width="1.02" height="1.02" style="fill:url(#n)"/>
<rect x="2.99" y="4.99" width="2.02" height="1.02" style="fill:url(#o)"/>
<rect x="4.99" y="4.99" width="6.02" height="1.02" style="fill:url(#p)"/>
<rect x="10.99" y="4.99" width="2.02" height="1.02" style="fill:url(#q)"/>
<rect x="12.99" y="4.99" width="1.02" height="1.02" style="fill:url(#r)"/>
<rect x="0.99" y="5.99" width="1.02" height="1.02" style="fill:url(#s)"/>
<rect x="1.99" y="5.99" width="3.02" height="1.02" style="fill:url(#t)"/>
<rect x="4.99" y="5.99" width="6.02" height="1.02" style="fill:url(#u)"/>
<rect x="10.99" y="5.99" width="3.02" height="1.02" style="fill:url(#v)"/>
<rect x="13.99" y="5.99" width="1.02" height="1.02" style="fill:url(#w)"/>
<rect x="-0.01" y="6.99" width="1.02" height="1.02" style="fill:url(#x)"/>
<rect x="0.99" y="6.99" width="4.02" height="1.02" style="fill:url(#y)"/>
<rect x="4.99" y="6.99" width="6.02" height="1.02" style="fill:url(#z)"/>
<rect x="10.99" y="6.99" width="4.02" height="1.02" style="fill:url(#A)"/>
<rect x="14.99" y="6.99" width="1.02" height="1.02" style="fill:url(#B)"/>
<rect x="-0.01" y="7.99" width="1.02" height="1.02" style="fill:url(#C)"/>
<rect x="0.99" y="7.99" width="4.02" height="1.02" style="fill:url(#D)"/>
<rect x="4.99" y="7.99" width="6.02" height="1.02" style="fill:url(#E)"/>
<rect x="10.99" y="7.99" width="4.02" height="1.02" style="fill:url(#F)"/>
<rect x="14.99" y="7.99" width="1.02" height="1.02" style="fill:url(#G)"/>
<rect x="0.99" y="8.99" width="1.02" height="1.02" style="fill:url(#H)"/>
<rect x="1.99" y="8.99" width="3.02" height="1.02" style="fill:url(#I)"/>
<rect x="4.99" y="8.99" width="6.02" height="1.02" style="fill:url(#J)"/>
<rect x="10.99" y="8.99" width="3.02" height="1.02" style="fill:url(#K)"/>
<rect x="13.99" y="8.99" width="1.02" height="1.02" style="fill:url(#L)"/>
<rect x="1.99" y="9.99" width="1.02" height="1.02" style="fill:url(#M)"/>
<rect x="2.99" y="9.99" width="2.02" height="1.02" style="fill:url(#N)"/>
<rect x="4.99" y="9.99" width="6.02" height="1.02" style="fill:url(#O)"/>
<rect x="10.99" y="9.99" width="2.02" height="1.02" style="fill:url(#P)"/>
<rect x="12.99" y="9.99" width="1.02" height="1.02" style="fill:url(#Q)"/>
<rect x="2.99" y="10.99" width="1.02" height="1.02" style="fill:url(#R)"/>
<rect x="3.99" y="10.99" width="8.02" height="1.02" style="fill:url(#S)"/>
<rect x="11.99" y="10.99" width="1.02" height="1.02" style="fill:url(#T)"/>
<rect x="3.99" y="11.99" width="1.02" height="1.02" style="fill:url(#U)"/>
<rect x="4.99" y="11.99" width="6.02" height="1.02" style="fill:url(#V)"/>
<rect x="10.99" y="11.99" width="1.02" height="1.02" style="fill:url(#W)"/>
<rect x="4.99" y="12.99" width="1.02" height="1.02" style="fill:url(#X)"/>
<rect x="5.99" y="12.99" width="4.02" height="1.02" style="fill:url(#Y)"/>
<rect x="9.99" y="12.99" width="1.02" height="1.02" style="fill:url(#Z)"/>
<rect x="5.99" y="13.99" width="1.02" height="1.02" style="fill:url(#aa)"/>
<rect x="6.99" y="13.99" width="2.02" height="1.02" style="fill:url(#ab)"/>
<rect x="8.99" y="13.99" width="1.02" height="1.02" style="fill:url(#ac)"/>
<rect x="6.99" y="14.99" width="2.02" height="1.02" style="fill:url(#ad)"/>
<rect x="7" y="4" width="2" height="1" style="isolation:isolate;opacity:.8;fill:url(#ae)"/>
<rect x="6" y="6" width="1" height="1" style="isolation:isolate;opacity:.6;fill:url(#af)"/>
<rect x="9" y="6" width="1" height="1" style="isolation:isolate;opacity:.6;fill:url(#ag)"/>
<rect x="7" y="8" width="2" height="1" style="isolation:isolate;opacity:.4;fill:url(#ah)"/>
</svg>