<svg xmlns="http://www.w3.org/2000/svg" viewBox="0 0 376.42 420.9"><defs><style>.cls-1{fill:#1e1575;}.cls-2{fill:#b45ae6;}.cls-3{fill:#7832b4;}.cls-4{fill:#5821a1;}.cls-5{fill:#6f2aa8;}.cls-6{fill:#7c2eab;}.cls-7{fill:#6a2ba9;}.cls-8{fill:#782daa;}.cls-9{fill:#a035b0;}.cls-10{fill:#5727a6;}.cls-11{fill:#612ba8;}.cls-12{fill:#742dab;}.cls-13{fill:#5626a5;}.cls-14{fill:#5f26a5;}.cls-15{fill:#5c2aa8;}.cls-16{fill:#a73db7;}.cls-17{fill:#5b29a8;}.cls-18{fill:#7830ad;}.cls-19{fill:#a33db7;}.cls-20{fill:#8033ae;}.cls-21{fill:#5329a8;}.cls-22{fill:#a03bb5;}.cls-23{fill:#6f2caa;}.cls-24{fill:#5f29a8;}.cls-25{fill:#642ca9;}.cls-26{fill:#722fac;}.cls-27{fill:#6c2ba9;}.cls-28{fill:#aa3cb6;}.cls-29{fill:#6c2dab;}.cls-30{fill:#5424a3;}.cls-31{fill:#672ba8;}.cls-32{fill:#5e27a6;}.cls-33{fill:#4b1a9b;}.cls-34{fill:#5823a2;}.cls-35{fill:#5529a8;}.cls-36{fill:#591c9e;}</style></defs><g id="Layer_2" data-name="Layer 2"><g id="Layer_1-2" data-name="Layer 1"><path class="cls-1" d="M191.33,0c.9,2.77,3.19,4.54,4.94,6.67q28,34.1,56.17,68.06c1.34,1.61,1.65,3.5,2.45,5.26,1.73-.24,2.83-1.49,4.09-2.42,6.21-4.58,12.41-9.18,18.55-13.86,1.57-1.19,2.43-1.24,3.73.51q14.44,19.52,29.11,38.84c1.83,2.42,1.59,4.67.23,7.14-1.85,3.37-1.8,3.41,2,4.65,14.42,4.7,28.82,9.45,43.28,14a5.13,5.13,0,0,1,4,4.44q4.83,23.18,9.95,46.3a4.94,4.94,0,0,1-1.55,5.17c-9.3,9.42-18.51,18.93-27.74,28.43-.56.58-1.46,1-1.42,2.18,7.41,1.29,14.82,2.72,22.28,3.79a3.62,3.62,0,0,1,3.43,3c3.71,12.42,7.38,24.86,11.27,37.22.73,2.33.28,3.4-1.69,4.69-14.35,9.39-28.61,18.9-42.9,28.38-.79.52-1.57,1.06-2.64,1.78l23.37,22.59c-.21,1.43-1.5,1.58-2.36,2.09-14.49,8.69-29,17.38-43.54,25.93a6.18,6.18,0,0,0-3.14,4.52c-1.4,6.71-3,13.38-4.3,20.11a6,6,0,0,1-3,4.27Q283,382,270.25,390.28a7.66,7.66,0,0,1-5.14,1.33c-8.18-.69-16.37-1.17-24.54-2a9.2,9.2,0,0,0-7.09,1.82c-12.33,9.27-24.82,18.35-37.27,27.49-3.67,2.69-5.26,2.62-8.62-.36q-15.14-13.41-30.22-26.86a9.18,9.18,0,0,0-5.47-2.5c-13.64-1.47-27.26-3.15-40.89-4.68a8.51,8.51,0,0,1-4.59-2q-28.48-23-57-45.87c-1.5-1.2-1.93-2.14-.94-3.93C50,330,51.11,327,52.6,324.18a4,4,0,0,0,0-4.35Q26.58,273,.71,226.05a5,5,0,0,0-.71-.82V223c2.34-13.93,7.25-27.18,10.53-40.86.75-3.13,2.67-4.36,5.86-4.31,9.07.15,18.13.06,27.18-.68,3.36-.28,3.7-.42,2.8-3.71-3-11-5.62-22.11-8.45-33.16-.34-1.3-.74-2.6-1-3.93-.87-5.46-.5-10.34,3.21-15.18C49.87,108.54,59,95.48,68.34,82.54c1.82-2.53,3.77-3.23,6.85-2.87,11.8,1.36,23.57,3,35.42,4,4.56.38,7.93,2,9.6,6.58,1,2.64,2.64,5,3.3,7-.21-5.63-.23-12,0-18.31.07-1.84,1.32-3.13,2.42-4.45C136.15,62.22,146.55,50.15,156.84,38,166,27.11,175.31,16.35,184.42,5.43c1.64-2,3.2-4,5.44-5.43Z"/><path class="cls-2" d="M100.87,181.79c1.51-2.89,4.54-4,7-5.74q41-29.13,82.05-58.1c1.72-1.22,2.91-1.54,4.79-.19q43.86,31.42,87.8,62.69c.28,1.64-1,2.13-2.09,2.6-10.8,4.68-21.61,9.33-32.51,13.76a4.61,4.61,0,0,1-1.8.34c-4.42-1.43-7.69-4.7-11.35-7.3Q215.27,176,196,161.91c-2.76-2-4.74-2.19-7.72,0-16.18,11.68-32.55,23.11-48.8,34.69a8.28,8.28,0,0,1-3.57,1.8c-4.49-1-8.27-3.61-12.35-5.51C115.94,189.31,108,186.28,100.87,181.79Z"/><path class="cls-3" d="M190.77,105.2c-8.77,6.23-17.56,12.43-26.31,18.69-9.65,6.9-19.3,13.8-28.87,20.8-1.74,1.27-2.35.72-2.67-1a15.86,15.86,0,0,1-.16-2.93c0-7.6.1-15.21-.18-22.8-.35-9.67-.64-19.33-.71-29a8.58,8.58,0,0,1,2.18-6q15.62-18.26,31.24-36.52Q177,32.81,188.6,19.12c1.65.23,1.66,1.62,1.8,2.76a79.45,79.45,0,0,1,.86,10.23c0,16.16,0,32.31,0,48.47,0,6.6,1.2,13.16.74,19.78C191.85,102,192.18,103.84,190.77,105.2Z"/><path class="cls-4" d="M190.77,105.2c-1-25.5-.59-51-.82-76.52,0-3.15-.06-6.49-1.35-9.56.45-.84.75-1.5,1.75-.3,4,4.78,8.13,9.44,12.15,14.19,5.83,6.89,11.6,13.83,17.4,20.74Q229,64.54,238,75.31c2.05,2.43,4,5,6.25,7.18a8,8,0,0,1,2.36,7.87c-2.72,14.83-5.36,29.67-8.06,44.51-.19,1-.61,2-1,3.47Z"/><path class="cls-5" d="M245.77,196.55l25.7-10.66c2.7-1.13,5.4-2.26,8.1-3.42,1.1-.47,2.38-.72,2.92-2,1.34.86.8,2.22.8,3.36,0,27,.27,53.94-.18,80.9-.14,8.67-.11,17.36-.54,26-1.27.94-2.35.14-3.37-.46-10.09-6-20.37-11.67-30.52-17.58-1.26-.73-2.63-1.39-3-3-.66-5.25-.39-10.53-.28-15.78.36-17.14-.73-34.25-.75-51.39C244.63,200.49,244.18,198.31,245.77,196.55Z"/><path class="cls-6" d="M246.54,270.88c4.82,1.78,9,4.81,13.43,7.28,7,3.89,13.91,8,20.87,12a8.72,8.72,0,0,0,1.73.54c.08,1.95-1.7,2.26-2.82,3q-23.56,15.86-47.21,31.6c-12.49,8.37-24.93,16.79-37.43,25.14-1.18.79-2.18,2-3.79,2.05-1.21-1.73-1.14-3.7-1.14-5.67,0-12.37.08-24.75-.09-37.12,0-1.76,1.35-2.49,2.56-3.31q25.14-17,50.26-34C244,271.71,245.05,270.76,246.54,270.88Z"/><path class="cls-7" d="M98.81,308q-16.71,4.71-33.43,9.43c-2.11.6-3.32,0-4.4-2q-17.25-31.72-34.66-63.36c-4.71-8.57-9.48-17.1-14.2-25.66-.64-1.17-1.12-2.43-1.68-3.65,2.21-1.31,4.56-.46,6.78-.23,9,1,18,2.17,27,3,1.57.38,2.37,1.64,3.16,2.87,15.46,23.93,31.59,47.42,47.2,71.25C96.22,302.33,98.56,304.68,98.81,308Z"/><path class="cls-8" d="M100.87,181.79a5.67,5.67,0,0,1,2.81.71q16.21,7.75,32.44,15.48c1.46,1.5,1.12,3.42,1.17,5.22.47,17.25,1,34.51.8,51.77-.06,5.12,1.27,10.23.4,15.37a4,4,0,0,1-2.34,2.62c-10,5.48-20,11.19-29.95,16.74a7.65,7.65,0,0,1-3.1.94c-1.26-1.06-.72-2.51-.73-3.79-.09-7.84.24-15.71-.21-23.53-.8-13.84-.08-27.69-.77-41.5C100.72,208.47,100.94,195.13,100.87,181.79Z"/><path class="cls-9" d="M103.1,290.64c8.13-5.19,16.74-9.54,25.13-14.29,3.06-1.73,5.89-4,9.43-4.81,2-.47,3.21.93,4.56,1.89,15.19,10.77,30.46,21.43,45.7,32.14,1.08.76,2.38,1.35,2.64,2.87a6.54,6.54,0,0,1,.76,3.88q0,20.12,0,40.24c-6.72-3.79-12.75-8.59-19-13Q139,316.35,106,292.92C105,292.22,104.05,291.4,103.1,290.64Z"/><path class="cls-10" d="M98.81,308q-25.09-37.8-50.17-75.61c-1.28-1.93-2.34-4-3.5-6-1.08-1.71-.19-3.35.3-4.92,3-9.68,5.54-19.5,8.5-29.19.47-1.53.89-3.06,2.22-4.12,0,.08,0,.11,0,.12s.18-.18.2-.2c.57-.48,27.3,34.29,34.28,44.32a8.82,8.82,0,0,1,.93,1.69,10.57,10.57,0,0,1,.71,4.15c0,17.16.05,34.32,0,51.49A5.53,5.53,0,0,0,95,295.13c4.3,2.74,8.4,5.78,13,8.95A60.84,60.84,0,0,1,98.81,308Z"/><path class="cls-11" d="M100.81,170a11,11,0,0,1-2.25,1.83c-4.87,2.13-5.32,6-5.16,10.77.33,9.78.14,19.59.07,29.39,0,3.26,1.37,6.47.27,10-1.39-.48-2-1.73-2.72-2.71-8.66-12-31-38.84-31.22-39.56q-5.34-19.2-10.59-38.43c.3-1.93,2-2.11,3.32-2.2,10.43-.69,20.79-2.25,31.25-2.41a4.7,4.7,0,0,1,3.54,2.85q6.81,14.1,13.38,28.33A2.57,2.57,0,0,1,100.81,170Z"/><path class="cls-12" d="M290.68,173.71c-4.22-3.1-8.39-6.27-12.67-9.27-1.81-1.26-2.35-2.14-.92-4.31,7.52-11.38,14.81-22.92,22.21-34.38,2.17-3.37,2.72-3.5,6.86-2.13,3.21,10.43,7.52,20.46,11.18,30.74,1.89,5.3,4.19,10.46,5.79,15.88a10.7,10.7,0,0,1-.06,3.57c-1.81,5.3-5.48,9.52-8.43,14.14-6.46,10.1-12.84,20.26-19.54,30.2-.92,1.35-1.55,3.11-3.55,3.44-.92-1.26-.47-2.64-.47-3.92,0-13.46,0-26.92-.05-40.38C291,176.1,291.41,174.84,290.68,173.71Z"/><path class="cls-13" d="M290.68,173.71c1.23,1.09.69,2.53.69,3.81.05,13.25,0,26.5,0,39.75v3.56l.52.22c1.74-2.59,3.55-5.14,5.2-7.77,8.32-13.25,17.27-26.08,25.21-39.56.81-1.14,0-2.53.58-3.71a1.87,1.87,0,0,1,1.09-.36c10.83,1.6,21.47,4.19,32.21,6.22a5.1,5.1,0,0,1,2.85,1.51c.94,3.51-1.44,5.13-3.65,7.22-6.5,6.12-12.7,12.57-19.07,18.84q-21.31,21-42.69,41.93c-.51.51-1.06,1-2.28,2.09.29-4.13-.61-7.49-.62-10.93Q290.67,205.12,290.68,173.71Z"/><path class="cls-14" d="M192.06,362.9l31.84-21.53c1.8,5.77,2.23,11.45,3.36,17,1.59,7.74,2.65,15.59,4.11,23.36.29,1.55.2,2.41-1.15,3.37-12.29,8.62-24.52,17.33-36.78,26a4.33,4.33,0,0,1-1.38.38,9.11,9.11,0,0,1-1.18-5.27c0-12.81,0-25.63,0-38.44C190.91,366.05,190.69,364.27,192.06,362.9Z"/><path class="cls-15" d="M108.84,94.32c3.09,4,4.32,8.93,6.34,13.45,5.18,11.59,10,23.33,15.06,35,2,4.67,2,4.61-2,7.73-5,3.89-10,7.88-15,11.79-1.34,1-2.59,2.24-4.31,2.67-2.12.29-3-1.37-4-2.67-6.7-8.92-13.5-17.76-20-26.79a3.83,3.83,0,0,1-.3-1.6c1.26-4.29,4.08-7.75,6.33-11.5,4.89-8.18,10-16.23,14.88-24.42A11.74,11.74,0,0,1,108.84,94.32Z"/><path class="cls-16" d="M265.63,156.09c-6.59-4.68-13.17-9.39-19.8-14a2.59,2.59,0,0,1-1.19-3.06q4-21.83,7.76-43.71a4.33,4.33,0,0,1,1.92-2.93q10.81-7.95,21.57-16c2.35.63,1.8,2.67,1.84,4.2.26,12,.14,24-2.47,35.81s-4.75,23.53-7.15,35.29C267.78,153.36,268,155.51,265.63,156.09Z"/><path class="cls-17" d="M60.37,329.06q24.27-9.39,48.54-18.76a5.56,5.56,0,0,1,5.59.4c8,5.72,16.11,11.41,24.14,17.1L114,348.86c-1.66.62-3.14-.13-4.61-.67C95.24,343,81,338.1,66.85,333,64.51,332.14,61.43,332.15,60.37,329.06Z"/><path class="cls-18" d="M292.16,286.3c0-10.4,0-20.8-.11-31.21a5,5,0,0,1,1.88-4.11c8.93-7.79,17.82-15.63,26.74-23.43,2-1.77,4.08-3.47,6.13-5.2,1.49-.17,1.91,1,2.17,2,2.88,10.7,6.5,21.19,8.79,32-.28,1.94-1.82,2.8-3.26,3.71-12.75,8.13-25.35,16.52-38.08,24.68C295.15,285.6,294,287,292.16,286.3Z"/><path class="cls-19" d="M108.84,94.32c-2.62,5.37-6.07,10.25-9.08,15.39C95,117.8,89.58,125.49,85.35,133.89a5.54,5.54,0,0,1-4.09,1.23c-9.51,0-19,.08-28.52,0-1.54,0-3.57.48-4.22-1.84,9.06-13.47,18.16-26.92,27.15-40.43,1.11-1.68,2.46-1.73,4.08-1.56Z"/><path class="cls-20" d="M56.16,188.2l-11,38.23c-11.66-.29-23.14-2.38-34.7-3.6-.49-3.12,1.07-5.85,1.79-8.7,2-7.82,4.33-15.55,6.45-23.33.48-1.79,1.26-2.63,3.27-2.61C33.35,188.27,44.76,188.21,56.16,188.2Z"/><path class="cls-21" d="M298.64,347.38c-1.18,5.34-2.42,10.66-3.51,16a7,7,0,0,1-3.08,4.7q-13.21,9.16-26.3,18.52c-3.15,2.25-6.68,1.46-9.93,1-4-.51-8-.45-12-1.12-2-.34-3.08-.73-3.27-3a45.49,45.49,0,0,0-1.3-6c8.62-7.75,16.55-16.21,24.93-24.21a6.37,6.37,0,0,1,1.86-1.17c9.75-2.19,19.63-3.64,29.47-5.35A3.39,3.39,0,0,1,298.64,347.38Z"/><path class="cls-22" d="M265.58,353.27c-5.46,5.35-10.9,10.73-16.4,16.05-2.69,2.61-5.5,5.11-8.25,7.67a2,2,0,0,1-1.66.55c-3.54-11.44-7-22.92-10.68-34.32-.88-2.73-.52-4.23,2-5.92,9.33-6.31,18.45-12.93,27.65-19.42,1.84,0,2.12,1.47,2.37,2.73,2,9.83,3.63,19.71,5.53,29.54A3.35,3.35,0,0,1,265.58,353.27Z"/><path class="cls-23" d="M265.63,156.09c2.23-5.06,2.53-10.57,3.65-15.88,2.26-10.71,4.33-21.46,6.36-32.22a64.51,64.51,0,0,0,1-13.47c-.13-4.9,0-9.8,0-14.7,0-1.17.42-2.49-.78-3.4.94-1.08,1.47-.21,2,.45q10.86,13.36,21.72,26.75a3.92,3.92,0,0,1,.45,5q-13.56,24.6-26.91,49.31c-1,1.79-1.93,2.38-3.67.95C268.27,157.85,266.92,157,265.63,156.09Z"/><path class="cls-13" d="M292.16,286.3Q302,280,311.84,273.65c7.78-5,15.55-10.07,23.34-15.08.72-.47,1.51-.82,1.87-1.66a3.71,3.71,0,0,1,3.09-.85c6.22.8,12.48.21,18.71.45,2.66.11,5.42,0,7.67,1.86-7.09,6.37-15.08,11.59-22.55,17.46-5.66,4.45-11.52,8.64-17.18,13.1-1.81,1.42-3.29,1.94-5.06.17-2.07-2.06-4.28-2-7-.93-11.69,4.65-23.46,9.1-35.19,13.63a12.11,12.11,0,0,1-4,1.16c-.12-1.34,1.05-1.59,1.7-2,3.62-2.5,7.17-5.15,11-7.27C291.43,291.93,292.75,289.73,292.16,286.3Z"/><path class="cls-24" d="M192.06,362.9v48.54c-6.31-4.61-11.75-10.24-17.73-15.23-4.41-3.67-8.58-7.62-12.92-11.35a3.37,3.37,0,0,1-1.08-4.44c4.13-10.15,8.13-20.35,12.33-30.92Z"/><path class="cls-25" d="M159.72,361.45c-1.62,6.13-3.29,12.24-4.84,18.38-.45,1.76-1.33,2.43-3.1,2.21-4.48-.55-9-1-13.44-1.54-8.81-1.13-17.63-2.26-26.43-3.51-4.09-.58-4.8-2.14-3-6.09,2.32-5,4.71-9.95,7.1-14.91,1.26-2.63,2.6-5.22,3.9-7.83,1.5-1.08,3-.61,4.56-.12,10.84,3.47,21.53,7.37,32.43,10.63C158.27,359.07,159.93,359.4,159.72,361.45Z"/><path class="cls-26" d="M294.33,323.26l-17.09-14.54c1.56-1.57,3.32-1.72,4.86-2.24,11.08-3.81,22.2-7.48,33.25-11.35,2.43-.86,4-.56,5.73,1.41,5.25,6,10.72,11.72,16,17.63.7.78,2.81,1.58.73,3.14-6.14,2.75-12.85,2.6-19.31,3.69s-12.8,1.87-19.2,2.79A7.81,7.81,0,0,1,294.33,323.26Z"/><path class="cls-27" d="M366.52,258.37c-7.75-1.19-15.56-.65-23.34-.75-2.08,0-4-1.13-6.13-.71-2.24-8.1-4.36-16.24-6.79-24.29-1-3.45-1-7.3-3.46-10.27,2-1.36,4,0,5.87.2,7.23,1,14.4,2.38,21.62,3.41,3.2.46,5,1.47,5.8,5.08,1.84,8.32,4.37,16.49,6.64,24.71C367,256.67,367.62,257.58,366.52,258.37Z"/><path class="cls-28" d="M322.33,170q-8.4-22.28-16.81-44.55c-.32-.83-.82-1.64.64-1.8l44.12,14c.79,1.4-.17,2.33-.95,3.22-8.24,9.39-16.41,18.84-24.82,28.07a3.62,3.62,0,0,1-1.49,1h0C322.78,170.37,322.55,170.35,322.33,170Z"/><path class="cls-29" d="M265.58,353.27c-1.8-9.77-3.53-19.56-5.48-29.31-.4-2,.25-4.53-1.87-6.08,6-4.21,6-4.22,11.81.35,9,7,17.81,14.34,27,21.08,3.56,2.6,1.73,5.27,1.58,8.07C287.58,349.14,276.54,351,265.58,353.27Z"/><path class="cls-30" d="M60.37,329.06c2,1.72,4.55,2.21,6.92,3.07q23.34,8.4,46.72,16.73l-9.75,21.43c-4.38-3.6-8.49-6.93-12.57-10.31Q76.8,347.64,61.93,335.25c-.66-.55-1.23-1.2-1.9-1.73C57.89,331.85,58.12,330.39,60.37,329.06Z"/><path class="cls-31" d="M323,170c2-3.89,5.49-6.51,8.21-9.79,5.83-7.05,12.08-13.74,18.17-20.58a2.74,2.74,0,0,0,.88-1.94c2.3,4.13,2.29,8.84,3.29,13.29,2,8.77,4.13,17.52,5.49,26.43L324,170.46A4,4,0,0,1,323,170Z"/><path class="cls-32" d="M159.72,361.45c-.46-1.19-1.54-1.38-2.6-1.73q-16.81-5.43-33.6-11a9.76,9.76,0,0,0-3.57-.58c4.33-4,9.62-6.63,14.33-10.09,1.77-1.3,3.72-2.36,5.51-3.64,4.83-3.45,4.81-3.48,9.55-.25s9.47,6.5,14.26,9.68c1.55,1,2.09,2,1.31,3.93C163.05,352.29,161.44,356.89,159.72,361.45Z"/><path class="cls-33" d="M294.33,323.26q15.09-2.1,30.2-4.2c4.43-.6,8.86-1.16,13.29-1.75-4.6,4-10.21,6.54-15.19,10-3.9,2.7-8.06,5-12.06,7.57-1.74,1.11-3.12,1.38-4.67-.5C302.48,330.25,297.67,327.51,294.33,323.26Z"/><path class="cls-34" d="M85.37,135.42c4.34,4.14,7.32,9.35,11,14,3.31,4.2,6.38,8.6,9.64,12.84a21.81,21.81,0,0,0,3,2.68,42.9,42.9,0,0,1-8.18,5.07q-6.94-14.61-13.9-29.23c-.57-1.18-.88-2.58-2.29-3.16C84.16,136.65,84.61,136,85.37,135.42Z"/><path class="cls-35" d="M191.49,309.1q-25.71-17.48-51.42-35c-1.37-.93-2.83-1.72-4.25-2.58-1.06-24.92-.89-49.87-1.62-74.8l39.43-27.16c5.42-3.74,10.93-7.38,16.23-11.27,2.29-1.68,4-1.71,6.32-.08q24.87,17.48,49.89,34.76c1.14.8,2.33,1.54,3.5,2.3.29,25.2,1.19,50.38.81,75.58C237.92,279.59,225,287.63,212.32,296c-6.14,4-12.31,8-18.45,12A4.41,4.41,0,0,1,191.49,309.1Z"/><path class="cls-36" d="M85.37,135.42l-.75,2.21c-8.27.4-16.5,1.2-24.73,2.14-3.58.4-7.34-.49-10.68,1.56-.73-2.65-1.34-5.32-.69-8.09.67.71,1.55.59,2.4.59l34.43.06Z"/><path class="cls-31" d="M322.33,170H323c-.14,1.26.57,2.68-.68,3.74Z"/></g></g></svg>