<svg id="Layer_1" data-name="Layer 1" xmlns="http://www.w3.org/2000/svg" xmlns:xlink="http://www.w3.org/1999/xlink" viewBox="0 0 16 16"><defs><style>.cls-1{fill:url(#linear-gradient);}.cls-2{fill:url(#linear-gradient-2);}.cls-3{fill:url(#linear-gradient-3);}.cls-4{fill:url(#linear-gradient-4);}.cls-5{fill:url(#linear-gradient-5);}.cls-6{fill:url(#linear-gradient-6);}.cls-7{fill:url(#linear-gradient-7);}.cls-8{fill:url(#linear-gradient-8);}.cls-9{fill:url(#linear-gradient-9);}.cls-10{fill:url(#linear-gradient-10);}.cls-11{fill:url(#linear-gradient-11);}.cls-12{fill:url(#linear-gradient-12);}.cls-13{fill:url(#linear-gradient-13);}.cls-14{fill:url(#linear-gradient-14);}.cls-15{fill:url(#linear-gradient-15);}.cls-16{fill:url(#linear-gradient-16);}.cls-17{fill:url(#linear-gradient-17);}.cls-18{fill:url(#linear-gradient-18);}.cls-19{fill:url(#linear-gradient-19);}.cls-20{fill:url(#linear-gradient-20);}.cls-21{fill:url(#linear-gradient-21);}.cls-22{fill:url(#linear-gradient-22);}.cls-23{fill:url(#linear-gradient-23);}.cls-24{fill:url(#linear-gradient-24);}.cls-25{fill:url(#linear-gradient-25);}.cls-26{fill:url(#linear-gradient-26);}.cls-27{fill:url(#linear-gradient-27);}.cls-28{fill:url(#linear-gradient-28);}.cls-29{fill:url(#linear-gradient-29);}.cls-30{fill:url(#linear-gradient-30);}.cls-31{fill:url(#linear-gradient-31);}.cls-32{fill:url(#linear-gradient-32);}.cls-33{fill:url(#linear-gradient-33);}.cls-34{fill:url(#linear-gradient-34);}.cls-35{fill:url(#linear-gradient-35);}.cls-36{fill:url(#linear-gradient-36);}.cls-37{fill:url(#linear-gradient-37);}.cls-38{fill:url(#linear-gradient-38);}.cls-39{fill:url(#linear-gradient-39);}.cls-40{fill:url(#linear-gradient-40);}.cls-41{fill:url(#linear-gradient-41);}.cls-42{fill:url(#linear-gradient-42);}.cls-43{fill:url(#linear-gradient-43);}.cls-44{fill:url(#linear-gradient-44);}.cls-45{fill:url(#linear-gradient-45);}.cls-46{fill:url(#linear-gradient-46);}.cls-47{fill:url(#linear-gradient-47);}.cls-48{fill:url(#linear-gradient-48);}.cls-49{fill:url(#linear-gradient-49);}.cls-50{fill:url(#linear-gradient-50);}.cls-51{fill:url(#linear-gradient-51);}.cls-52{fill:url(#linear-gradient-52);}.cls-53{fill:url(#linear-gradient-53);}.cls-54{fill:url(#linear-gradient-54);}.cls-55{fill:url(#linear-gradient-55);}.cls-56{fill:url(#linear-gradient-56);}.cls-57,.cls-58,.cls-59,.cls-60{isolation:isolate;}.cls-57{opacity:0.8;fill:url(#linear-gradient-57);}.cls-58,.cls-59{opacity:0.6;}.cls-58{fill:url(#linear-gradient-58);}.cls-59{fill:url(#linear-gradient-59);}.cls-60{opacity:0.4;fill:url(#linear-gradient-60);}</style><linearGradient id="linear-gradient" x1="-127.5" y1="22" x2="-126.5" y2="21" gradientTransform="matrix(2, 0, 0, -1, 262, 22)" gradientUnits="userSpaceOnUse"><stop offset="0" stop-color="#c084fc"/><stop offset="0.3" stop-color="#a855f7"/><stop offset="0.7" stop-color="#9333ea"/><stop offset="1" stop-color="#7c3aed"/></linearGradient><linearGradient id="linear-gradient-2" x1="-7.93" y1="21.98" x2="-6.93" y2="20.98" gradientTransform="matrix(1, 0, 0, -1, 14, 23)" xlink:href="#linear-gradient"/><linearGradient id="linear-gradient-3" x1="-127.5" y1="22" x2="-126.5" y2="21" gradientTransform="matrix(2, 0, 0, -1, 262, 23)" gradientUnits="userSpaceOnUse"><stop offset="0" stop-color="#e9d5ff"/><stop offset="0.5" stop-color="#d8b4fe"/><stop offset="1" stop-color="#c084fc"/></linearGradient><linearGradient id="linear-gradient-4" x1="-8.01" y1="21.99" x2="-6.99" y2="20.98" gradientTransform="matrix(1, 0, 0, -1, 17, 23)" xlink:href="#linear-gradient"/><linearGradient id="linear-gradient-5" x1="-8" x2="-7" y2="21" gradientTransform="matrix(1, 0, 0, -1, 13, 24)" xlink:href="#linear-gradient"/><linearGradient id="linear-gradient-6" x1="-187.25" x2="-186.25" y2="21" gradientTransform="matrix(4, 0, 0, -1, 755, 24)" xlink:href="#linear-gradient-3"/><linearGradient id="linear-gradient-7" x1="-8" x2="-7" y2="21" gradientTransform="matrix(1, 0, 0, -1, 18, 24)" xlink:href="#linear-gradient"/><linearGradient id="linear-gradient-8" x1="-8" x2="-7" y2="21" gradientTransform="matrix(1, 0, 0, -1, 12, 25)" xlink:href="#linear-gradient"/><linearGradient id="linear-gradient-9" x1="-207.17" x2="-206.17" y2="21" gradientTransform="matrix(6, 0, 0, -1, 1248, 25)" xlink:href="#linear-gradient-3"/><linearGradient id="linear-gradient-10" x1="-8" x2="-7" y2="21" gradientTransform="matrix(1, 0, 0, -1, 19, 25)" xlink:href="#linear-gradient"/><linearGradient id="linear-gradient-11" x1="-8" x2="-7" y2="21" gradientTransform="matrix(1, 0, 0, -1, 11, 26)" xlink:href="#linear-gradient"/><linearGradient id="linear-gradient-12" x1="-217.13" x2="-216.12" y2="21" gradientTransform="matrix(8, 0, 0, -1, 1741, 26)" xlink:href="#linear-gradient-3"/><linearGradient id="linear-gradient-13" x1="-8" x2="-7" y2="21" gradientTransform="matrix(1, 0, 0, -1, 20, 26)" xlink:href="#linear-gradient"/><linearGradient id="linear-gradient-14" x1="-8" x2="-7" y2="21" gradientTransform="matrix(1, 0, 0, -1, 10, 27)" xlink:href="#linear-gradient"/><linearGradient id="linear-gradient-15" x2="-126.5" y2="21" gradientTransform="matrix(2, 0, 0, -1, 258, 27)" xlink:href="#linear-gradient-3"/><linearGradient id="linear-gradient-16" x1="-207.17" x2="-206.17" y2="21" gradientTransform="matrix(6, 0, 0, -1, 1248, 27)" xlink:href="#linear-gradient"/><linearGradient id="linear-gradient-17" x2="-126.5" y2="21" gradientTransform="matrix(2, 0, 0, -1, 266, 27)" xlink:href="#linear-gradient-3"/><linearGradient id="linear-gradient-18" x1="-8" x2="-7" y2="21" gradientTransform="matrix(1, 0, 0, -1, 21, 27)" xlink:href="#linear-gradient"/><linearGradient id="linear-gradient-19" x1="-8" x2="-7" y2="21" gradientTransform="matrix(1, 0, 0, -1, 9, 28)" xlink:href="#linear-gradient"/><linearGradient id="linear-gradient-20" x1="-167.33" x2="-166.33" y2="21" gradientTransform="matrix(3, 0, 0, -1, 504, 28)" xlink:href="#linear-gradient-3"/><linearGradient id="linear-gradient-21" x1="-207.17" x2="-206.17" y2="21" gradientTransform="matrix(6, 0, 0, -1, 1248, 28)" xlink:href="#linear-gradient"/><linearGradient id="linear-gradient-22" x1="-167.33" x2="-166.33" y2="21" gradientTransform="matrix(3, 0, 0, -1, 513, 28)" xlink:href="#linear-gradient-3"/><linearGradient id="linear-gradient-23" x1="-8" x2="-7" y2="21" gradientTransform="matrix(1, 0, 0, -1, 22, 28)" xlink:href="#linear-gradient"/><linearGradient id="linear-gradient-24" x1="-8" x2="-7" y2="21" gradientTransform="matrix(1, 0, 0, -1, 8, 29)" xlink:href="#linear-gradient"/><linearGradient id="linear-gradient-25" x1="-187.25" x2="-186.25" y2="21" gradientTransform="matrix(4, 0, 0, -1, 750, 29)" xlink:href="#linear-gradient-3"/><linearGradient id="linear-gradient-26" x1="-207.17" x2="-206.17" y2="21" gradientTransform="matrix(6, 0, 0, -1, 1248, 29)" xlink:href="#linear-gradient"/><linearGradient id="linear-gradient-27" x1="-187.25" x2="-186.25" y2="21" gradientTransform="matrix(4, 0, 0, -1, 760, 29)" xlink:href="#linear-gradient-3"/><linearGradient id="linear-gradient-28" x1="-8" x2="-7" y2="21" gradientTransform="matrix(1, 0, 0, -1, 23, 29)" xlink:href="#linear-gradient"/><linearGradient id="linear-gradient-29" x1="-8" x2="-7" y2="21" gradientTransform="matrix(1, 0, 0, -1, 8, 30)" xlink:href="#linear-gradient"/><linearGradient id="linear-gradient-30" x1="-187.25" x2="-186.25" y2="21" gradientTransform="matrix(4, 0, 0, -1, 750, 30)" xlink:href="#linear-gradient-3"/><linearGradient id="linear-gradient-31" x1="-207.17" x2="-206.17" y2="21" gradientTransform="matrix(6, 0, 0, -1, 1248, 30)" xlink:href="#linear-gradient"/><linearGradient id="linear-gradient-32" x1="-187.25" x2="-186.25" y2="21" gradientTransform="matrix(4, 0, 0, -1, 760, 30)" xlink:href="#linear-gradient-3"/><linearGradient id="linear-gradient-33" x1="-8" x2="-7" y2="21" gradientTransform="matrix(1, 0, 0, -1, 23, 30)" xlink:href="#linear-gradient"/><linearGradient id="linear-gradient-34" x1="-8" x2="-7" y2="21" gradientTransform="matrix(1, 0, 0, -1, 9, 31)" xlink:href="#linear-gradient"/><linearGradient id="linear-gradient-35" x1="-167.33" x2="-166.33" y2="21" gradientTransform="matrix(3, 0, 0, -1, 504, 31)" xlink:href="#linear-gradient-3"/><linearGradient id="linear-gradient-36" x1="-207.17" x2="-206.17" y2="21" gradientTransform="matrix(6, 0, 0, -1, 1248, 31)" xlink:href="#linear-gradient"/><linearGradient id="linear-gradient-37" x1="-167.33" x2="-166.33" y2="21" gradientTransform="matrix(3, 0, 0, -1, 513, 31)" xlink:href="#linear-gradient-3"/><linearGradient id="linear-gradient-38" x1="-8" x2="-7" y2="21" gradientTransform="matrix(1, 0, 0, -1, 22, 31)" xlink:href="#linear-gradient"/><linearGradient id="linear-gradient-39" x1="-8" x2="-7" y2="21" gradientTransform="matrix(1, 0, 0, -1, 10, 32)" xlink:href="#linear-gradient"/><linearGradient id="linear-gradient-40" x2="-126.5" y2="21" gradientTransform="matrix(2, 0, 0, -1, 258, 32)" xlink:href="#linear-gradient-3"/><linearGradient id="linear-gradient-41" x1="-207.17" x2="-206.17" y2="21" gradientTransform="matrix(6, 0, 0, -1, 1248, 32)" xlink:href="#linear-gradient"/><linearGradient id="linear-gradient-42" x2="-126.5" y2="21" gradientTransform="matrix(2, 0, 0, -1, 266, 32)" xlink:href="#linear-gradient-3"/><linearGradient id="linear-gradient-43" x1="-8" x2="-7" y2="21" gradientTransform="matrix(1, 0, 0, -1, 21, 32)" xlink:href="#linear-gradient"/><linearGradient id="linear-gradient-44" x1="-8" x2="-7" y2="21" gradientTransform="matrix(1, 0, 0, -1, 11, 33)" xlink:href="#linear-gradient"/><linearGradient id="linear-gradient-45" x1="-217.13" x2="-216.13" y2="21" gradientTransform="matrix(8, 0, 0, -1, 1741, 33)" xlink:href="#linear-gradient"/><linearGradient id="linear-gradient-46" x1="-8" x2="-7" y2="21" gradientTransform="matrix(1, 0, 0, -1, 20, 33)" xlink:href="#linear-gradient"/><linearGradient id="linear-gradient-47" x1="-8" x2="-7" y2="21" gradientTransform="matrix(1, 0, 0, -1, 12, 34)" xlink:href="#linear-gradient"/><linearGradient id="linear-gradient-48" x1="-207.17" x2="-206.17" y2="21" gradientTransform="matrix(6, 0, 0, -1, 1248, 34)" xlink:href="#linear-gradient"/><linearGradient id="linear-gradient-49" x1="-8" x2="-7" y2="21" gradientTransform="matrix(1, 0, 0, -1, 19, 34)" xlink:href="#linear-gradient"/><linearGradient id="linear-gradient-50" x1="-8" x2="-7" y2="21" gradientTransform="matrix(1, 0, 0, -1, 13, 35)" xlink:href="#linear-gradient"/><linearGradient id="linear-gradient-51" x1="-187.25" x2="-186.25" y2="21" gradientTransform="matrix(4, 0, 0, -1, 755, 35)" xlink:href="#linear-gradient"/><linearGradient id="linear-gradient-52" x1="-8" x2="-7" y2="21" gradientTransform="matrix(1, 0, 0, -1, 18, 35)" xlink:href="#linear-gradient"/><linearGradient id="linear-gradient-53" x1="-8" x2="-7" y2="21" gradientTransform="matrix(1, 0, 0, -1, 14, 36)" xlink:href="#linear-gradient"/><linearGradient id="linear-gradient-54" x2="-126.5" y2="21" gradientTransform="matrix(2, 0, 0, -1, 262, 36)" xlink:href="#linear-gradient"/><linearGradient id="linear-gradient-55" x1="-8" x2="-7" y2="21" gradientTransform="matrix(1, 0, 0, -1, 17, 36)" xlink:href="#linear-gradient"/><linearGradient id="linear-gradient-56" x2="-126.5" y2="21" gradientTransform="matrix(2, 0, 0, -1, 262, 37)" xlink:href="#linear-gradient"/><linearGradient id="linear-gradient-57" x2="-126.5" y2="21" gradientTransform="matrix(2, 0, 0, -1, 262, 26)" xlink:href="#linear-gradient-3"/><linearGradient id="linear-gradient-58" x1="-8" x2="-7" y2="21" gradientTransform="matrix(1, 0, 0, -1, 14, 28)" xlink:href="#linear-gradient-3"/><linearGradient id="linear-gradient-59" x1="-8" x2="-7" y2="21" gradientTransform="matrix(1, 0, 0, -1, 17, 28)" xlink:href="#linear-gradient-3"/><linearGradient id="linear-gradient-60" x2="-126.5" y2="21" gradientTransform="matrix(2, 0, 0, -1, 262, 30)" xlink:href="#linear-gradient-3"/></defs><rect class="cls-1" x="7" width="2" height="1"/><rect class="cls-2" x="6.07" y="1.02" width="1" height="1"/><rect class="cls-3" x="7" y="1" width="2" height="1"/><rect class="cls-4" x="9" y="1" width="1" height="1.03"/><rect class="cls-5" x="5" y="2" width="1" height="1"/><rect class="cls-6" x="6" y="2" width="4" height="1"/><rect class="cls-7" x="10" y="2" width="1" height="1"/><rect class="cls-8" x="4" y="3" width="1" height="1"/><rect class="cls-9" x="5" y="3" width="6" height="1"/><rect class="cls-10" x="11" y="3" width="1" height="1"/><rect class="cls-11" x="3" y="4" width="1" height="1"/><rect class="cls-12" x="4" y="4" width="8" height="1"/><rect class="cls-13" x="12" y="4" width="1" height="1"/><rect class="cls-14" x="2" y="5" width="1" height="1"/><rect class="cls-15" x="3" y="5" width="2" height="1"/><rect class="cls-16" x="5" y="5" width="6" height="1"/><rect class="cls-17" x="11" y="5" width="2" height="1"/><rect class="cls-18" x="13" y="5" width="1" height="1"/><rect class="cls-19" x="1" y="6" width="1" height="1"/><rect class="cls-20" x="2" y="6" width="3" height="1"/><rect class="cls-21" x="5" y="6" width="6" height="1"/><rect class="cls-22" x="11" y="6" width="3" height="1"/><rect class="cls-23" x="14" y="6" width="1" height="1"/><rect class="cls-24" y="7" width="1" height="1"/><rect class="cls-25" x="1" y="7" width="4" height="1"/><rect class="cls-26" x="5" y="7" width="6" height="1"/><rect class="cls-27" x="11" y="7" width="4" height="1"/><rect class="cls-28" x="15" y="7" width="1" height="1"/><rect class="cls-29" y="8" width="1" height="1"/><rect class="cls-30" x="1" y="8" width="4" height="1"/><rect class="cls-31" x="5" y="8" width="6" height="1"/><rect class="cls-32" x="11" y="8" width="4" height="1"/><rect class="cls-33" x="15" y="8" width="1" height="1"/><rect class="cls-34" x="1" y="9" width="1" height="1"/><rect class="cls-35" x="2" y="9" width="3" height="1"/><rect class="cls-36" x="5" y="9" width="6" height="1"/><rect class="cls-37" x="11" y="9" width="3" height="1"/><rect class="cls-38" x="14" y="9" width="1" height="1"/><rect class="cls-39" x="2" y="10" width="1" height="1"/><rect class="cls-40" x="3" y="10" width="2" height="1"/><rect class="cls-41" x="5" y="10" width="6" height="1"/><rect class="cls-42" x="11" y="10" width="2" height="1"/><rect class="cls-43" x="13" y="10" width="1" height="1"/><rect class="cls-44" x="3" y="11" width="1" height="1"/><rect class="cls-45" x="4" y="11" width="8" height="1"/><rect class="cls-46" x="12" y="11" width="1" height="1"/><rect class="cls-47" x="4" y="12" width="1" height="1"/><rect class="cls-48" x="5" y="12" width="6" height="1"/><rect class="cls-49" x="11" y="12" width="1" height="1"/><rect class="cls-50" x="5" y="13" width="1" height="1"/><rect class="cls-51" x="6" y="13" width="4" height="1"/><rect class="cls-52" x="10" y="13" width="1" height="1"/><rect class="cls-53" x="6" y="14" width="1" height="1"/><rect class="cls-54" x="7" y="14" width="2" height="1"/><rect class="cls-55" x="9" y="14" width="1" height="1"/><rect class="cls-56" x="7" y="15" width="2" height="1"/><rect class="cls-57" x="7" y="4" width="2" height="1"/><rect class="cls-58" x="6" y="6" width="1" height="1"/><rect class="cls-59" x="9" y="6" width="1" height="1"/><rect class="cls-60" x="7" y="8" width="2" height="1"/></svg>