<svg xmlns="http://www.w3.org/2000/svg" xmlns:xlink="http://www.w3.org/1999/xlink" width="1920" zoomAndPan="magnify" viewBox="0 0 1440 809.999993" height="1080" preserveAspectRatio="xMidYMid meet" version="1.0"><defs><g/><clipPath id="3891d5f613"><rect x="0" width="1398" y="0" height="278"/></clipPath></defs><g transform="matrix(1, 0, 0, 1, 8, 266)"><g clip-path="url(#3891d5f613)"><g fill="#000000" fill-opacity="1"><g transform="translate(28.203705, 210.218259)"><g><path d="M -10.078125 36.171875 C -16.179688 36.171875 -20.488281 34.832031 -23 32.15625 C -25.519531 29.488281 -26.78125 26.703125 -26.78125 23.796875 C -26.78125 20.296875 -25.785156 17.703125 -23.796875 16.015625 C -21.816406 14.335938 -19.609375 13.5 -17.171875 13.5 C -15.035156 13.5 -13.164062 14.144531 -11.5625 15.4375 C -9.957031 16.738281 -9.15625 18.6875 -9.15625 21.28125 C -9.15625 23.113281 -9.84375 24.945312 -11.21875 26.78125 C -10.457031 27.082031 -9.617188 27.269531 -8.703125 27.34375 C -7.785156 27.425781 -6.945312 27.46875 -6.1875 27.46875 C 3.28125 27.46875 11.976562 23.726562 19.90625 16.25 C 27.84375 8.769531 33.796875 -1.375 37.765625 -14.1875 C 28.910156 -16.019531 21.695312 -19.035156 16.125 -23.234375 C 10.5625 -27.429688 7.78125 -32.195312 7.78125 -37.53125 C 7.78125 -42.414062 9.765625 -46.765625 13.734375 -50.578125 C 17.703125 -54.398438 23.003906 -57.644531 29.640625 -60.3125 C 36.273438 -62.976562 43.640625 -64.847656 51.734375 -65.921875 L 69.125 -130.015625 C 70.5 -135.660156 71.414062 -140.082031 71.875 -143.28125 L 66.609375 -143.28125 C 61.566406 -143.28125 57.023438 -141.640625 52.984375 -138.359375 C 48.941406 -135.078125 46.082031 -130.613281 44.40625 -124.96875 L 43.484375 -125.203125 L 47.609375 -158.84375 C 48.222656 -158.238281 49.40625 -157.78125 51.15625 -157.46875 C 52.914062 -157.164062 54.863281 -157.015625 57 -157.015625 L 122.921875 -157.015625 C 125.054688 -157.015625 127 -157.164062 128.75 -157.46875 C 130.507812 -157.78125 131.691406 -158.238281 132.296875 -158.84375 L 136.421875 -125.203125 L 135.5 -124.96875 C 133.820312 -130.613281 130.960938 -135.078125 126.921875 -138.359375 C 122.878906 -141.640625 118.335938 -143.28125 113.296875 -143.28125 L 109.40625 -143.28125 C 109.71875 -141.601562 110.097656 -139.65625 110.546875 -137.4375 C 111.003906 -135.226562 111.617188 -132.753906 112.390625 -130.015625 L 146.71875 -8.234375 C 149.3125 1.066406 151.675781 7.472656 153.8125 10.984375 C 155.945312 14.492188 158.921875 16.859375 162.734375 18.078125 L 162.734375 18.765625 L 121.078125 18.765625 L 121.078125 18.078125 C 124.441406 16.859375 126.3125 14.300781 126.6875 10.40625 C 127.070312 6.519531 126.039062 0.304688 123.59375 -8.234375 L 120.625 -18.765625 L 115.8125 -35.9375 C 111.238281 -44.019531 104.410156 -49.929688 95.328125 -53.671875 C 86.253906 -57.410156 76.984375 -59.28125 67.515625 -59.28125 L 56.765625 -19.6875 C 58.597656 -19.6875 60.960938 -19.835938 63.859375 -20.140625 C 66.753906 -20.441406 69.726562 -21.015625 72.78125 -21.859375 C 75.832031 -22.703125 78.390625 -23.882812 80.453125 -25.40625 C 82.515625 -26.9375 83.546875 -28.921875 83.546875 -31.359375 C 83.546875 -33.492188 82.628906 -35.019531 80.796875 -35.9375 C 78.960938 -36.851562 77.207031 -37.3125 75.53125 -37.3125 C 73.394531 -37.3125 71.410156 -36.851562 69.578125 -35.9375 C 71.410156 -39.90625 74.234375 -42.84375 78.046875 -44.75 C 81.867188 -46.65625 85.6875 -47.609375 89.5 -47.609375 C 93.46875 -47.609375 96.976562 -46.65625 100.03125 -44.75 C 103.082031 -42.84375 104.609375 -40.054688 104.609375 -36.390625 C 104.609375 -31.960938 102.429688 -27.914062 98.078125 -24.25 C 93.734375 -20.59375 87.894531 -17.695312 80.5625 -15.5625 C 73.238281 -13.425781 65.078125 -12.359375 56.078125 -12.359375 L 54.703125 -12.359375 C 52.722656 -3.503906 52.113281 3.515625 52.875 8.703125 C 53.632812 13.890625 55.769531 17.550781 59.28125 19.6875 L 55.390625 24.953125 C 52.035156 23.117188 47.765625 22.507812 42.578125 23.125 C 42.878906 20.976562 42.457031 19.410156 41.3125 18.421875 C 40.164062 17.429688 38.832031 16.9375 37.3125 16.9375 C 35.78125 16.9375 34.328125 17.507812 32.953125 18.65625 C 31.585938 19.800781 30.90625 21.441406 30.90625 23.578125 C 30.90625 24.492188 30.976562 25.179688 31.125 25.640625 C 24.5625 27.617188 17.921875 29.867188 11.203125 32.390625 C 4.492188 34.910156 -2.597656 36.171875 -10.078125 36.171875 Z M 30.21875 -39.375 C 30.21875 -36.320312 31.171875 -33.457031 33.078125 -30.78125 C 34.984375 -28.113281 37.460938 -25.863281 40.515625 -24.03125 L 49.4375 -57 C 43.644531 -55.46875 38.992188 -53.140625 35.484375 -50.015625 C 31.972656 -46.890625 30.21875 -43.34375 30.21875 -39.375 Z M 69.578125 -66.84375 C 76.753906 -66.6875 83.773438 -65.769531 90.640625 -64.09375 C 97.503906 -62.414062 103.914062 -59.894531 109.875 -56.53125 L 87.890625 -134.359375 Z M 120.625 -18.546875 L 120.625 -18.765625 Z M 120.625 -18.546875 "/></g></g></g><g fill="#000000" fill-opacity="1"><g transform="translate(182.010089, 210.218259)"><g><path d="M 0.921875 -0.6875 C 4.734375 -1.90625 7.4375 -4.457031 9.03125 -8.34375 C 10.632812 -12.238281 11.664062 -18.460938 12.125 -27.015625 L 16.25 -103.453125 C 16.707031 -112.003906 16.285156 -118.222656 14.984375 -122.109375 C 13.691406 -126.003906 11.289062 -128.5625 7.78125 -129.78125 L 7.78125 -130.46875 L 40.96875 -130.46875 L 66.84375 -78.28125 L 92.46875 -130.46875 L 123.375 -130.46875 L 123.375 -129.78125 C 119.863281 -128.5625 117.457031 -126.003906 116.15625 -122.109375 C 114.863281 -118.222656 114.445312 -112.003906 114.90625 -103.453125 L 119.015625 -27.015625 C 119.472656 -18.460938 120.503906 -12.238281 122.109375 -8.34375 C 123.710938 -4.457031 126.421875 -1.90625 130.234375 -0.6875 L 130.234375 0 L 89.953125 0 L 89.953125 -0.6875 C 93.460938 -1.90625 95.863281 -4.457031 97.15625 -8.34375 C 98.457031 -12.238281 98.878906 -18.460938 98.421875 -27.015625 L 94.296875 -101.40625 L 63.40625 -38.453125 L 32.5 -100.71875 L 28.609375 -27.015625 C 28.148438 -18.460938 28.566406 -12.238281 29.859375 -8.34375 C 31.160156 -4.457031 33.566406 -1.90625 37.078125 -0.6875 L 37.078125 0 L 0.921875 0 Z M 0.921875 -0.6875 "/></g></g></g><g fill="#000000" fill-opacity="1"><g transform="translate(313.157499, 210.218259)"><g><path d="M 3.203125 -0.6875 C 6.867188 -1.90625 9.425781 -4.457031 10.875 -8.34375 C 12.320312 -12.238281 13.046875 -18.460938 13.046875 -27.015625 L 13.046875 -103.453125 C 13.046875 -112.003906 12.320312 -118.222656 10.875 -122.109375 C 9.425781 -126.003906 6.867188 -128.5625 3.203125 -129.78125 L 3.203125 -130.46875 L 74.625 -130.46875 C 76.300781 -130.46875 78.128906 -130.617188 80.109375 -130.921875 C 82.097656 -131.234375 83.394531 -131.691406 84 -132.296875 L 71.875 -107.578125 L 71.1875 -107.8125 C 71.945312 -114.21875 67.519531 -117.421875 57.90625 -117.421875 L 33.640625 -117.421875 L 33.640625 -83.09375 L 34.109375 -83.09375 C 35.785156 -86.144531 37.992188 -88.582031 40.734375 -90.40625 C 43.484375 -92.238281 46.535156 -93.15625 49.890625 -93.15625 C 54.015625 -93.15625 57.90625 -92.238281 61.5625 -90.40625 C 65.226562 -88.582031 68.96875 -87.671875 72.78125 -87.671875 C 76.601562 -87.671875 79.425781 -89.117188 81.25 -92.015625 L 81.9375 -91.78125 C 80.875 -87.507812 78.625 -83.351562 75.1875 -79.3125 C 71.757812 -75.269531 67.601562 -73.25 62.71875 -73.25 C 60.125 -73.25 57.601562 -73.78125 55.15625 -74.84375 C 52.71875 -75.914062 50.238281 -76.984375 47.71875 -78.046875 C 45.207031 -79.117188 42.578125 -79.65625 39.828125 -79.65625 C 37.390625 -79.65625 35.328125 -78.816406 33.640625 -77.140625 L 33.640625 -13.734375 L 56.765625 -13.734375 C 63.171875 -13.734375 68.929688 -15.332031 74.046875 -18.53125 C 79.160156 -21.738281 82.785156 -26.015625 84.921875 -31.359375 L 85.828125 -31.125 L 79.65625 2.515625 C 78.582031 0.835938 76.367188 0 73.015625 0 L 3.203125 0 Z M 3.203125 -0.6875 "/></g></g></g><g fill="#000000" fill-opacity="1"><g transform="translate(401.733475, 210.218259)"><g><path d="M 24.71875 -0.6875 C 28.382812 -1.90625 30.941406 -4.457031 32.390625 -8.34375 C 33.835938 -12.238281 34.5625 -18.460938 34.5625 -27.015625 L 34.5625 -116.734375 L 26.328125 -116.734375 C 21.285156 -116.734375 16.742188 -115.09375 12.703125 -111.8125 C 8.660156 -108.53125 5.800781 -104.066406 4.125 -98.421875 L 3.203125 -98.65625 L 7.328125 -132.296875 C 7.929688 -131.691406 9.109375 -131.234375 10.859375 -130.921875 C 12.617188 -130.617188 14.566406 -130.46875 16.703125 -130.46875 L 72.78125 -130.46875 C 74.914062 -130.46875 76.859375 -130.617188 78.609375 -130.921875 C 80.367188 -131.234375 81.554688 -131.691406 82.171875 -132.296875 L 86.296875 -98.65625 L 85.375 -98.421875 C 83.695312 -104.066406 80.835938 -108.53125 76.796875 -111.8125 C 72.753906 -115.09375 68.210938 -116.734375 63.171875 -116.734375 L 55.15625 -116.734375 L 55.15625 -27.015625 C 55.15625 -18.460938 55.878906 -12.238281 57.328125 -8.34375 C 58.785156 -4.457031 61.34375 -1.90625 65 -0.6875 L 65 0 L 24.71875 0 Z M 24.71875 -0.6875 "/></g></g></g><g fill="#000000" fill-opacity="1"><g transform="translate(491.225023, 210.218259)"><g><path d="M 3.203125 -0.6875 C 6.867188 -1.90625 9.425781 -4.457031 10.875 -8.34375 C 12.320312 -12.238281 13.046875 -18.460938 13.046875 -27.015625 L 13.046875 -103.453125 C 13.046875 -112.003906 12.320312 -118.222656 10.875 -122.109375 C 9.425781 -126.003906 6.867188 -128.5625 3.203125 -129.78125 L 3.203125 -130.46875 L 43.484375 -130.46875 L 43.484375 -129.78125 C 39.828125 -128.5625 37.269531 -126.003906 35.8125 -122.109375 C 34.363281 -118.222656 33.640625 -112.003906 33.640625 -103.453125 L 33.640625 -96.59375 L 73.015625 -96.59375 L 73.015625 -103.453125 C 73.015625 -112.003906 72.289062 -118.222656 70.84375 -122.109375 C 69.394531 -126.003906 66.835938 -128.5625 63.171875 -129.78125 L 63.171875 -130.46875 L 103.453125 -130.46875 L 103.453125 -129.78125 C 99.796875 -128.5625 97.238281 -126.003906 95.78125 -122.109375 C 94.332031 -118.222656 93.609375 -112.003906 93.609375 -103.453125 L 93.609375 -27.015625 C 93.609375 -18.460938 94.332031 -12.238281 95.78125 -8.34375 C 97.238281 -4.457031 99.796875 -1.90625 103.453125 -0.6875 L 103.453125 0 L 63.171875 0 L 63.171875 -0.6875 C 66.835938 -1.90625 69.394531 -4.457031 70.84375 -8.34375 C 72.289062 -12.238281 73.015625 -18.460938 73.015625 -27.015625 L 73.015625 -70.265625 L 33.640625 -70.265625 L 33.640625 -27.015625 C 33.640625 -18.460938 34.363281 -12.238281 35.8125 -8.34375 C 37.269531 -4.457031 39.828125 -1.90625 43.484375 -0.6875 L 43.484375 0 L 3.203125 0 Z M 33.640625 -74.84375 L 73.015625 -74.84375 L 73.015625 -80.5625 L 33.640625 -80.5625 Z M 33.640625 -74.84375 "/></g></g></g><g fill="#000000" fill-opacity="1"><g transform="translate(597.882409, 210.218259)"><g><path d="M 30.90625 -0.6875 C 34.5625 -1.90625 37.113281 -4.457031 38.5625 -8.34375 C 40.019531 -12.238281 40.75 -18.460938 40.75 -27.015625 L 40.75 -56.53125 L 15.328125 -107.125 C 11.210938 -115.363281 7.929688 -120.96875 5.484375 -123.9375 C 3.046875 -126.914062 0.148438 -128.863281 -3.203125 -129.78125 L -3.203125 -130.46875 L 36.625 -130.46875 L 36.625 -129.78125 C 33.726562 -128.5625 32.582031 -126.039062 33.1875 -122.21875 C 33.800781 -118.40625 36.242188 -112.148438 40.515625 -103.453125 L 53.109375 -78.046875 L 65.46875 -103.453125 C 69.882812 -112.148438 72.359375 -118.40625 72.890625 -122.21875 C 73.429688 -126.039062 72.253906 -128.5625 69.359375 -129.78125 L 69.359375 -130.46875 L 103 -130.46875 L 103 -129.78125 C 99.644531 -128.863281 96.707031 -126.914062 94.1875 -123.9375 C 91.664062 -120.96875 88.347656 -115.363281 84.234375 -107.125 L 61.34375 -61.578125 L 61.34375 -27.015625 C 61.34375 -18.460938 62.066406 -12.238281 63.515625 -8.34375 C 64.960938 -4.457031 67.519531 -1.90625 71.1875 -0.6875 L 71.1875 0 L 30.90625 0 Z M 30.90625 -0.6875 "/></g></g></g><g fill="#000000" fill-opacity="1"><g transform="translate(697.673431, 210.218259)"><g><path d="M 42.796875 2.0625 C 35.472656 2.0625 28.335938 0.613281 21.390625 -2.28125 C 14.453125 -5.1875 8.695312 -9.535156 4.125 -15.328125 L 12.59375 -46.234375 L 13.28125 -46.234375 C 14.195312 -38.753906 16.332031 -32.570312 19.6875 -27.6875 C 23.039062 -22.8125 27.003906 -19.191406 31.578125 -16.828125 C 36.160156 -14.460938 40.664062 -13.28125 45.09375 -13.28125 C 50.28125 -13.28125 54.742188 -14.84375 58.484375 -17.96875 C 62.222656 -21.09375 64.09375 -25.632812 64.09375 -31.59375 C 64.09375 -36.625 62.71875 -40.894531 59.96875 -44.40625 C 57.21875 -47.914062 53.664062 -51.082031 49.3125 -53.90625 C 44.96875 -56.726562 40.390625 -59.507812 35.578125 -62.25 C 30.773438 -65 26.195312 -68.050781 21.84375 -71.40625 C 17.5 -74.769531 13.953125 -78.738281 11.203125 -83.3125 C 8.460938 -87.894531 7.09375 -93.390625 7.09375 -99.796875 C 7.09375 -109.566406 10.375 -117.460938 16.9375 -123.484375 C 23.5 -129.515625 32.117188 -132.53125 42.796875 -132.53125 C 49.515625 -132.53125 55.160156 -131.648438 59.734375 -129.890625 C 64.316406 -128.140625 67.828125 -127.265625 70.265625 -127.265625 C 71.484375 -127.265625 72.398438 -127.644531 73.015625 -128.40625 L 74.15625 -96.828125 L 73.25 -96.59375 C 70.800781 -103.15625 66.90625 -108.53125 61.5625 -112.71875 C 56.226562 -116.914062 50.507812 -119.015625 44.40625 -119.015625 C 39.820312 -119.015625 35.851562 -117.71875 32.5 -115.125 C 29.144531 -112.53125 27.46875 -108.566406 27.46875 -103.234375 C 27.46875 -98.648438 28.835938 -94.71875 31.578125 -91.4375 C 34.328125 -88.15625 37.835938 -85.179688 42.109375 -82.515625 C 46.390625 -79.847656 50.96875 -77.140625 55.84375 -74.390625 C 60.726562 -71.640625 65.304688 -68.546875 69.578125 -65.109375 C 73.847656 -61.679688 77.359375 -57.640625 80.109375 -52.984375 C 82.859375 -48.328125 84.234375 -42.644531 84.234375 -35.9375 C 84.234375 -27.394531 82.25 -20.300781 78.28125 -14.65625 C 74.3125 -9.007812 69.160156 -4.8125 62.828125 -2.0625 C 56.492188 0.6875 49.816406 2.0625 42.796875 2.0625 Z M 42.796875 2.0625 "/></g></g></g><g fill="#000000" fill-opacity="1"><g transform="translate(781.442813, 210.218259)"><g><path d="M 24.71875 -0.6875 C 28.382812 -1.90625 30.941406 -4.457031 32.390625 -8.34375 C 33.835938 -12.238281 34.5625 -18.460938 34.5625 -27.015625 L 34.5625 -116.734375 L 26.328125 -116.734375 C 21.285156 -116.734375 16.742188 -115.09375 12.703125 -111.8125 C 8.660156 -108.53125 5.800781 -104.066406 4.125 -98.421875 L 3.203125 -98.65625 L 7.328125 -132.296875 C 7.929688 -131.691406 9.109375 -131.234375 10.859375 -130.921875 C 12.617188 -130.617188 14.566406 -130.46875 16.703125 -130.46875 L 72.78125 -130.46875 C 74.914062 -130.46875 76.859375 -130.617188 78.609375 -130.921875 C 80.367188 -131.234375 81.554688 -131.691406 82.171875 -132.296875 L 86.296875 -98.65625 L 85.375 -98.421875 C 83.695312 -104.066406 80.835938 -108.53125 76.796875 -111.8125 C 72.753906 -115.09375 68.210938 -116.734375 63.171875 -116.734375 L 55.15625 -116.734375 L 55.15625 -27.015625 C 55.15625 -18.460938 55.878906 -12.238281 57.328125 -8.34375 C 58.785156 -4.457031 61.34375 -1.90625 65 -0.6875 L 65 0 L 24.71875 0 Z M 24.71875 -0.6875 "/></g></g></g><g fill="#000000" fill-opacity="1"><g transform="translate(870.934289, 210.218259)"><g/></g></g><g fill="#000000" fill-opacity="1"><g transform="translate(930.442732, 210.218259)"><g><path d="M 40.515625 59.515625 C 36.703125 59.515625 33.613281 58.21875 31.25 55.625 C 28.882812 53.03125 27.703125 49.820312 27.703125 46 C 27.703125 41.582031 29.148438 36.851562 32.046875 31.8125 C 34.941406 26.78125 38.601562 21.820312 43.03125 16.9375 C 35.707031 12.507812 29.71875 6.675781 25.0625 -0.5625 C 20.40625 -7.8125 18.078125 -16.320312 18.078125 -26.09375 C 18.078125 -35.707031 20.328125 -43.910156 24.828125 -50.703125 C 29.335938 -57.492188 35.289062 -62.910156 42.6875 -66.953125 C 50.09375 -70.992188 57.988281 -73.703125 66.375 -75.078125 L 66.375 -90.40625 C 66.375 -99.875 66.109375 -107.238281 65.578125 -112.5 C 65.046875 -117.757812 64.050781 -121.648438 62.59375 -124.171875 C 61.144531 -126.691406 59.050781 -128.410156 56.3125 -129.328125 L 56.3125 -130.015625 C 59.363281 -130.316406 63.175781 -131.269531 67.75 -132.875 C 72.332031 -134.476562 76.796875 -136.5 81.140625 -138.9375 C 85.492188 -141.375 88.738281 -143.738281 90.875 -146.03125 L 91.5625 -145.578125 C 89.570312 -142.523438 88.578125 -133.75 88.578125 -119.25 L 88.578125 -75.53125 C 95.296875 -74.925781 102.085938 -73.328125 108.953125 -70.734375 C 115.816406 -68.140625 121.535156 -64.472656 126.109375 -59.734375 C 130.691406 -55.003906 132.984375 -48.828125 132.984375 -41.203125 C 132.984375 -36.015625 131.34375 -31.585938 128.0625 -27.921875 C 124.78125 -24.265625 120.46875 -22.4375 115.125 -22.4375 C 111.164062 -22.4375 107.773438 -23.734375 104.953125 -26.328125 C 102.128906 -28.921875 100.71875 -32.273438 100.71875 -36.390625 C 101.9375 -35.472656 103.15625 -35.015625 104.375 -35.015625 C 106.664062 -35.015625 108.265625 -35.96875 109.171875 -37.875 C 110.085938 -39.789062 110.546875 -41.660156 110.546875 -43.484375 C 110.546875 -49.441406 108.21875 -54.097656 103.5625 -57.453125 C 98.914062 -60.804688 93.921875 -63.019531 88.578125 -64.09375 L 88.578125 -50.359375 C 88.578125 -40.128906 88.921875 -32.34375 89.609375 -27 C 90.296875 -21.664062 91.363281 -17.96875 92.8125 -15.90625 C 94.257812 -13.84375 96.207031 -12.351562 98.65625 -11.4375 L 98.65625 -10.765625 C 92.238281 -9.691406 85.484375 -7.320312 78.390625 -3.65625 C 71.296875 0 64.847656 4.269531 59.046875 9.15625 C 66.984375 14.1875 75.910156 16.703125 85.828125 16.703125 C 96.660156 16.703125 106.160156 14.410156 114.328125 9.828125 C 122.492188 5.253906 129.285156 -0.921875 134.703125 -8.703125 C 140.117188 -16.484375 144.195312 -25.253906 146.9375 -35.015625 C 149.6875 -44.785156 151.0625 -54.859375 151.0625 -65.234375 C 151.0625 -76.066406 149.570312 -86.707031 146.59375 -97.15625 C 143.625 -107.613281 139.125 -117.078125 133.09375 -125.546875 C 127.070312 -134.015625 119.554688 -140.765625 110.546875 -145.796875 C 101.546875 -150.835938 91.019531 -153.359375 78.96875 -153.359375 C 70.269531 -153.359375 62.257812 -151.984375 54.9375 -149.234375 C 47.613281 -146.484375 41.738281 -142.820312 37.3125 -138.25 C 32.882812 -133.675781 30.671875 -128.640625 30.671875 -123.140625 C 30.671875 -120.390625 31.359375 -118.140625 32.734375 -116.390625 C 34.109375 -114.640625 35.863281 -113.765625 38 -113.765625 C 39.832031 -113.765625 41.546875 -114.332031 43.140625 -115.46875 C 44.742188 -116.613281 45.925781 -117.953125 46.6875 -119.484375 C 46.382812 -112.160156 44.019531 -106.171875 39.59375 -101.515625 C 35.164062 -96.859375 29.675781 -94.53125 23.125 -94.53125 C 17.320312 -94.53125 12.585938 -96.472656 8.921875 -100.359375 C 5.265625 -104.253906 3.4375 -109.253906 3.4375 -115.359375 C 3.4375 -122.222656 5.34375 -128.671875 9.15625 -134.703125 C 12.96875 -140.734375 18.304688 -146.035156 25.171875 -150.609375 C 32.046875 -155.191406 40.019531 -158.78125 49.09375 -161.375 C 58.175781 -163.96875 67.90625 -165.265625 78.28125 -165.265625 C 94.914062 -165.265625 109.410156 -162.515625 121.765625 -157.015625 C 134.128906 -151.523438 144.351562 -144.085938 152.4375 -134.703125 C 160.53125 -125.316406 166.554688 -114.863281 170.515625 -103.34375 C 174.484375 -91.820312 176.46875 -79.957031 176.46875 -67.75 C 176.46875 -55.695312 174.5625 -43.945312 170.75 -32.5 C 166.9375 -21.050781 161.253906 -10.710938 153.703125 -1.484375 C 146.148438 7.742188 136.800781 15.066406 125.65625 20.484375 C 114.519531 25.898438 101.628906 28.609375 86.984375 28.609375 C 80.421875 28.609375 73.816406 27.882812 67.171875 26.4375 C 60.535156 24.988281 54.320312 22.8125 48.53125 19.90625 C 44.707031 24.945312 42.796875 29.375 42.796875 33.1875 C 42.796875 35.320312 43.328125 36.921875 44.390625 37.984375 C 45.460938 39.054688 46.613281 39.59375 47.84375 39.59375 C 49.0625 39.59375 50.164062 39.054688 51.15625 37.984375 C 52.144531 36.921875 52.640625 35.398438 52.640625 33.421875 C 53.410156 34.796875 53.90625 36.207031 54.125 37.65625 C 54.351562 39.101562 54.46875 40.515625 54.46875 41.890625 C 54.46875 46.316406 53.285156 50.359375 50.921875 54.015625 C 48.554688 57.679688 45.085938 59.515625 40.515625 59.515625 Z M 40.75 -25.640625 C 40.75 -19.078125 42.003906 -13.085938 44.515625 -7.671875 C 47.035156 -2.253906 50.429688 2.285156 54.703125 5.953125 C 56.078125 4.734375 57.453125 3.585938 58.828125 2.515625 C 60.203125 1.453125 61.648438 0.382812 63.171875 -0.6875 C 64.546875 -4.5 65.421875 -8.734375 65.796875 -13.390625 C 66.179688 -18.046875 66.375 -21.898438 66.375 -24.953125 L 66.375 -62.9375 C 58.59375 -60.5 52.375 -55.960938 47.71875 -49.328125 C 43.070312 -42.691406 40.75 -34.796875 40.75 -25.640625 Z M 40.75 -25.640625 "/></g></g></g><g fill="#000000" fill-opacity="1"><g transform="translate(1114.461122, 210.218259)"><g><path d="M 58.140625 -11.90625 C 62.566406 -11.90625 66.148438 -13.617188 68.890625 -17.046875 C 71.640625 -20.484375 73.660156 -25.0625 74.953125 -30.78125 C 76.253906 -36.507812 76.90625 -42.804688 76.90625 -49.671875 C 76.90625 -57.296875 76.140625 -65.148438 74.609375 -73.234375 C 73.085938 -81.328125 70.914062 -88.804688 68.09375 -95.671875 C 65.269531 -102.535156 61.875 -108.066406 57.90625 -112.265625 C 53.9375 -116.460938 49.515625 -118.5625 44.640625 -118.5625 C 40.210938 -118.5625 36.585938 -116.84375 33.765625 -113.40625 C 30.941406 -109.976562 28.878906 -105.441406 27.578125 -99.796875 C 26.285156 -94.148438 25.640625 -87.894531 25.640625 -81.03125 C 25.640625 -73.25 26.398438 -65.3125 27.921875 -57.21875 C 29.453125 -49.132812 31.628906 -41.65625 34.453125 -34.78125 C 37.273438 -27.914062 40.707031 -22.382812 44.75 -18.1875 C 48.789062 -14 53.253906 -11.90625 58.140625 -11.90625 Z M 5.5 -67.515625 C 5.5 -87.960938 9.539062 -103.910156 17.625 -115.359375 C 25.707031 -126.804688 36.921875 -132.53125 51.265625 -132.53125 C 60.421875 -132.53125 68.429688 -129.707031 75.296875 -124.0625 C 82.171875 -118.414062 87.515625 -110.554688 91.328125 -100.484375 C 95.140625 -90.410156 97.046875 -78.660156 97.046875 -65.234375 C 97.046875 -51.960938 95.140625 -40.25 91.328125 -30.09375 C 87.515625 -19.945312 82.171875 -12.050781 75.296875 -6.40625 C 68.429688 -0.757812 60.421875 2.0625 51.265625 2.0625 C 41.960938 2.0625 33.875 -0.796875 27 -6.515625 C 20.132812 -12.242188 14.832031 -20.332031 11.09375 -30.78125 C 7.363281 -41.238281 5.5 -53.484375 5.5 -67.515625 Z M 5.5 -67.515625 "/></g></g></g><g fill="#000000" fill-opacity="1"><g transform="translate(1216.998675, 210.218259)"><g><path d="M 53.5625 2.28125 C 38.601562 2.28125 26.851562 -3.628906 18.3125 -15.453125 C 9.769531 -27.273438 5.5 -43.488281 5.5 -64.09375 C 5.5 -86.0625 9.769531 -102.957031 18.3125 -114.78125 C 26.851562 -126.613281 39.0625 -132.53125 54.9375 -132.53125 C 61.644531 -132.53125 66.828125 -131.800781 70.484375 -130.34375 C 74.148438 -128.894531 77.207031 -128.171875 79.65625 -128.171875 C 81.03125 -128.171875 82.175781 -128.628906 83.09375 -129.546875 L 84.921875 -92.921875 L 84.234375 -92.703125 C 81.335938 -101.097656 77.632812 -107.503906 73.125 -111.921875 C 68.625 -116.347656 63.25 -118.5625 57 -118.5625 C 47.84375 -118.5625 40.671875 -113.753906 35.484375 -104.140625 C 30.296875 -94.523438 27.703125 -81.175781 27.703125 -64.09375 C 27.703125 -48.832031 30.523438 -36.507812 36.171875 -27.125 C 41.816406 -17.738281 49.210938 -13.046875 58.359375 -13.046875 C 64.460938 -13.046875 69.878906 -15.066406 74.609375 -19.109375 C 79.347656 -23.148438 82.707031 -28.679688 84.6875 -35.703125 L 86.0625 -35.703125 L 88.125 -14.1875 C 79.726562 -3.207031 68.207031 2.28125 53.5625 2.28125 Z M 53.5625 2.28125 "/></g></g></g><g fill="#000000" fill-opacity="1"><g transform="translate(1308.321147, 210.218259)"><g><path d="M 42.796875 2.0625 C 35.472656 2.0625 28.335938 0.613281 21.390625 -2.28125 C 14.453125 -5.1875 8.695312 -9.535156 4.125 -15.328125 L 12.59375 -46.234375 L 13.28125 -46.234375 C 14.195312 -38.753906 16.332031 -32.570312 19.6875 -27.6875 C 23.039062 -22.8125 27.003906 -19.191406 31.578125 -16.828125 C 36.160156 -14.460938 40.664062 -13.28125 45.09375 -13.28125 C 50.28125 -13.28125 54.742188 -14.84375 58.484375 -17.96875 C 62.222656 -21.09375 64.09375 -25.632812 64.09375 -31.59375 C 64.09375 -36.625 62.71875 -40.894531 59.96875 -44.40625 C 57.21875 -47.914062 53.664062 -51.082031 49.3125 -53.90625 C 44.96875 -56.726562 40.390625 -59.507812 35.578125 -62.25 C 30.773438 -65 26.195312 -68.050781 21.84375 -71.40625 C 17.5 -74.769531 13.953125 -78.738281 11.203125 -83.3125 C 8.460938 -87.894531 7.09375 -93.390625 7.09375 -99.796875 C 7.09375 -109.566406 10.375 -117.460938 16.9375 -123.484375 C 23.5 -129.515625 32.117188 -132.53125 42.796875 -132.53125 C 49.515625 -132.53125 55.160156 -131.648438 59.734375 -129.890625 C 64.316406 -128.140625 67.828125 -127.265625 70.265625 -127.265625 C 71.484375 -127.265625 72.398438 -127.644531 73.015625 -128.40625 L 74.15625 -96.828125 L 73.25 -96.59375 C 70.800781 -103.15625 66.90625 -108.53125 61.5625 -112.71875 C 56.226562 -116.914062 50.507812 -119.015625 44.40625 -119.015625 C 39.820312 -119.015625 35.851562 -117.71875 32.5 -115.125 C 29.144531 -112.53125 27.46875 -108.566406 27.46875 -103.234375 C 27.46875 -98.648438 28.835938 -94.71875 31.578125 -91.4375 C 34.328125 -88.15625 37.835938 -85.179688 42.109375 -82.515625 C 46.390625 -79.847656 50.96875 -77.140625 55.84375 -74.390625 C 60.726562 -71.640625 65.304688 -68.546875 69.578125 -65.109375 C 73.847656 -61.679688 77.359375 -57.640625 80.109375 -52.984375 C 82.859375 -48.328125 84.234375 -42.644531 84.234375 -35.9375 C 84.234375 -27.394531 82.25 -20.300781 78.28125 -14.65625 C 74.3125 -9.007812 69.160156 -4.8125 62.828125 -2.0625 C 56.492188 0.6875 49.816406 2.0625 42.796875 2.0625 Z M 42.796875 2.0625 "/></g></g></g></g></g></svg>